<?xml version="1.0" encoding="UTF-8"?>
<svg id="Layer_2" data-name="Layer 2" xmlns="http://www.w3.org/2000/svg" xmlns:xlink="http://www.w3.org/1999/xlink" viewBox="0 0 1932.24 874.18">
  <defs>
    <style>
      .cls-1 {
        fill: none;
      }

      .cls-1, .cls-2 {
        stroke-width: 0px;
      }

      .cls-3 {
        clip-path: url(#clippath);
      }

      .cls-4 {
        opacity: .14;
      }

      .cls-2 {
        fill: #febe43;
      }
    </style>
    <clipPath id="clippath">
      <rect class="cls-1" width="1932.24" height="874.18"/>
    </clipPath>
  </defs>
  <g id="Layer_1-2" data-name="Layer 1">
    <g class="cls-4">
      <g class="cls-3">
        <g>
          <path class="cls-2" d="m728.25,573.36c162.45,37.64,420.63-72.59,762.93-147.87,342.3-75.28,562.77,137.11,562.77,137.11v134.43c-414.83-220.46-977.6,177.44-1401.12,110.23-229.03-36.35-336.56-170.15-545.37-174.75-121.84-2.69-229.17,53.77-229.17,53.77v-201.64c246.57-185.51,687.51,51.08,849.96,88.72Z"/>
          <path class="cls-2" d="m342.43,207.73c159.55,64.52,464.14,201.64,794.84,51.08C1467.97,108.25,1836.38-12.73,2053.95,89.43v244.65s-205.96-110.23-391.62-53.77c-185.66,56.46-353.91,155.93-693.31,153.25-339.4-2.69-644.86-195.12-773.54-210.26-234.62-27.6-317.19,102.72-317.19,102.72v-48.39C46.54,116.32,182.88,143.2,342.43,207.73Z"/>
          <path class="cls-2" d="m2053.95,764.25s-139.24-118.29-377.11-72.59c-237.87,45.7-487.35,188.2-635.29,153.25,0,0,116.04,59.15,443.83-59.15,218.36-78.8,496.05-37.64,568.57,34.95v-56.46Z"/>
          <path class="cls-2" d="m1337.43,97.5s-313.95,183.65-536.66,150.56C532.33,208.16,233.33,0,55.25,57.17c0,0,298.79-83.34,513.46,8.07,214.67,91.41,467.04,180.13,768.73,32.26Z"/>
        </g>
      </g>
    </g>
  </g>
</svg>