<?xml version="1.0" encoding="UTF-8"?>
<svg id="Layer_2" data-name="Layer 2" xmlns="http://www.w3.org/2000/svg" xmlns:xlink="http://www.w3.org/1999/xlink" viewBox="0 0 6271.81 3836.16">
  <defs>
    <clipPath id="clippath">
      <rect class="cls-1" x="350.85" width="5570.11" height="2116.74"/>
    </clipPath>
  </defs>
  <g id="Layer_1-2" data-name="Layer 1">
    <rect class="cls-2" x="452.58" y="215.65" width="5430.77" height="3620.51"/>
    <g class="cls-5">
      <g class="cls-4">
        <g>
          <path class="cls-3" d="m2450.19,1388.34c468.3,91.14,1212.55-175.77,2199.32-358.05,986.77-182.28,1622.31,332.01,1622.31,332.01v325.5c-1195.83-533.82-2818.13,429.66-4039.05,266.91-660.22-88.01-970.21-411.99-1572.13-423.15C309.41,1525.05,0,1661.76,0,1661.76v-488.25c710.81-449.19,1981.89,123.69,2450.19,214.83Z"/>
          <path class="cls-3" d="m1337.99,502.99c459.93,156.24,1337.99,488.25,2291.3,123.69,953.32-364.56,2015.34-657.51,2642.52-410.13v592.41s-593.73-266.91-1128.93-130.2c-535.19,136.71-1020.22,377.58-1998.62,371.07-978.4-6.51-1858.94-472.46-2229.9-509.12C238.02,473.87,0,789.43,0,789.43v-117.18c485.02-390.6,878.05-325.5,1337.99-169.26Z"/>
          <path class="cls-3" d="m6271.81,1850.55s-401.4-286.44-1087.11-175.77c-685.72,110.67-1404.89,455.7-1831.37,371.07,0,0,334.5,143.22,1279.45-143.22,629.46-190.8,1429.97-91.14,1639.03,84.63v-136.71Z"/>
          <path class="cls-3" d="m4206.3,236.08s-905.04,444.69-1547.05,364.56C1885.41,504.05,1023.47,0,510.11,138.43c0,0,861.33-201.81,1480.15,19.53,618.82,221.34,1346.35,436.17,2216.04,78.12Z"/>
        </g>
      </g>
    </g>
  </g>
</svg>