<?xml version="1.0" encoding="utf-8"?>
<!-- Generator: Adobe Illustrator 27.9.0, SVG Export Plug-In . SVG Version: 6.00 Build 0)  -->
<svg version="1.1" id="Layer_1" xmlns="http://www.w3.org/2000/svg" xmlns:xlink="http://www.w3.org/1999/xlink" x="0px" y="0px"
	 viewBox="0 0 5000 1080" style="enable-background:new 0 0 5000 1080;" xml:space="preserve">
<style type="text/css">
	.st0{fill:#F9DFAE;}
	.st1{opacity:0.14;}
	.st2{clip-path:url(#SVGID_00000179636080284107744710000013120300300530205583_);}
	.st3{fill:#FEBE43;}
</style>

<rect x="-215.38" y="-1270.26" class="st0" width="5430.77" height="3620.51"/>



<g class="st1">
	<defs>
		<rect id="SVGID_1_" x="-317.11" y="-1485.9" class="st1" width="5570.11" height="2116.74"/>
	</defs>
	<clipPath id="SVGID_00000127009428708071952630000000369259746258474913_">
		<use xlink:href="#SVGID_1_"  style="overflow:visible;"/>
	</clipPath>
	<g style="clip-path:url(#SVGID_00000127009428708071952630000000369259746258474913_);">
		<path class="st3" d="M1782.23-97.56c468.3,91.14,1212.55-175.77,2199.32-358.05S5603.85-123.6,5603.85-123.6v325.5
			C4408.03-331.92,2785.72,631.56,1564.8,468.81C904.58,380.8,594.59,56.82-7.33,45.66c-351.22-6.51-660.63,130.2-660.63,130.2
			v-488.25C42.84-761.57,1313.93-188.7,1782.23-97.56z"/>
		<path class="st3" d="M670.03-982.91c459.93,156.24,1337.99,488.25,2291.3,123.69c953.32-364.56,2015.34-657.51,2642.52-410.13
			v592.41c0,0-593.73-266.91-1128.93-130.2c-535.19,136.71-1020.22,377.58-1998.62,371.07c-978.4-6.51-1858.94-472.46-2229.9-509.12
			c-676.35-66.84-914.37,248.72-914.37,248.72v-117.18C-182.94-1204.25,210.09-1139.15,670.03-982.91z"/>
		<path class="st3" d="M5603.85,364.65c0,0-401.4-286.44-1087.11-175.77s-1404.89,455.7-1831.37,371.07
			c0,0,334.5,143.22,1279.45-143.22c629.46-190.8,1429.97-91.14,1639.03,84.63V364.65z"/>
		<path class="st3" d="M3538.33-1249.82c0,0-905.04,444.69-1547.05,364.56c-773.84-96.59-1635.77-600.64-2149.14-462.21
			c0,0,861.33-201.81,1480.15,19.53C1941.11-1106.6,2668.64-891.77,3538.33-1249.82z"/>
	</g>
</g>
</svg>
