<?xml version="1.0" encoding="UTF-8"?>
<svg id="Layer_2" data-name="Layer 2" xmlns="http://www.w3.org/2000/svg" xmlns:xlink="http://www.w3.org/1999/xlink" viewBox="0 0 6114.92 2456.98">
  <defs>
    <style>
      .cls-1 {
        fill: none;
      }

      .cls-1, .cls-2 {
        stroke-width: 0px;
      }

      .cls-3 {
        clip-path: url(#clippath);
      }

      .cls-4 {
        opacity: .14;
      }

      .cls-2 {
        fill: #febe43;
      }
    </style>
    <clipPath id="clippath">
      <rect class="cls-1" x="342.07" width="5430.77" height="2456.98"/>
    </clipPath>
  </defs>
  <g id="Layer_1-2" data-name="Layer 1">
    <g class="cls-4">
      <g class="cls-3">
        <g>
          <path class="cls-2" d="m2388.89,1611.5c456.58,105.79,1182.22-204.02,2144.3-415.6,962.08-211.58,1581.73,385.37,1581.73,385.37v377.82c-1165.91-619.62-2747.64,498.72-3938.01,309.81-643.7-102.15-945.94-478.21-1532.81-491.16C301.67,1770.19,0,1928.87,0,1928.87v-566.73c693.02-521.39,1932.31,143.57,2388.89,249.36Z"/>
          <path class="cls-2" d="m1304.52,583.84c448.43,181.35,1304.52,566.73,2233.98,143.57,929.47-423.16,1964.93-763.19,2576.42-476.05v687.63s-578.88-309.81-1100.69-151.13c-521.81,158.68-994.69,438.27-1948.62,430.71-953.93-7.56-1812.44-548.4-2174.12-590.95C232.06,550.04,0,916.32,0,916.32v-136.01c472.89-453.38,856.09-377.82,1304.52-196.47Z"/>
          <path class="cls-2" d="m6114.92,2148s-391.35-332.48-1059.92-204.02c-668.56,128.46-1369.74,528.95-1785.56,430.71,0,0,326.13,166.24,1247.44-166.24,613.71-221.47,1394.2-105.79,1598.03,98.23v-158.68Z"/>
          <path class="cls-2" d="m4101.07,274.03s-882.4,516.17-1508.35,423.16C1838.24,585.07,997.87,0,497.35,160.68c0,0,839.78-234.25,1443.12,22.67,603.34,256.92,1312.67,506.28,2160.6,90.68Z"/>
        </g>
      </g>
    </g>
  </g>
</svg>