<?xml version="1.0" encoding="UTF-8"?>
<svg id="Layer_2" data-name="Layer 2" xmlns="http://www.w3.org/2000/svg" xmlns:xlink="http://www.w3.org/1999/xlink" viewBox="0 0 901.45 259.18">
  <defs>
    <style>
      .cls-1 {
        fill: none;
      }

      .cls-1, .cls-2 {
        stroke-width: 0px;
      }

      .cls-2 {
        fill: #fff;
      }

      .cls-3 {
        clip-path: url(#clippath);
      }
    </style>
    <clipPath id="clippath">
      <rect class="cls-1" x="287.49" width="613.96" height="259.18"/>
    </clipPath>
  </defs>
  <g id="Layer_1-2" data-name="Layer 1">
    <g class="cls-3">
      <path class="cls-2" d="m805.26,155.3c-20.75,0-39.88,6.89-55.26,18.51-26.03-47.92-76.8-80.45-135.16-80.45-12.76,0-25.15,1.58-37.01,4.52.18-1.48.31-2.98.31-4.52,0-20.27-16.43-36.71-36.71-36.71-14.46,0-26.93,8.38-32.91,20.53-41.34-38.35-96.67-61.82-157.51-61.82-92.47,0-172.26,54.18-209.43,132.5-11.25-4.09-23.39-6.32-36.05-6.32C47.25,141.54,0,188.79,0,247.07h897.03c0-50.68-41.09-91.77-91.77-91.77Z"/>
    </g>
  </g>
</svg>