<?xml version="1.0" encoding="UTF-8"?>
<svg xmlns="http://www.w3.org/2000/svg" xmlns:xlink="http://www.w3.org/1999/xlink" viewBox="0 0 1686 592">
  <defs>
    <style>
      .cls-1 {
        fill: url(#linear-gradient);
      }

      .cls-1, .cls-2, .cls-3, .cls-4, .cls-5, .cls-6, .cls-7, .cls-8 {
        stroke-width: 0px;
      }

      .cls-1, .cls-3, .cls-4, .cls-5, .cls-7, .cls-8 {
        mix-blend-mode: screen;
      }

      .cls-1, .cls-8 {
        opacity: .2;
      }

      .cls-9 {
        isolation: isolate;
      }

      .cls-2 {
        fill: url(#linear-gradient-3);
        filter: url(#outer-glow-1);
      }

      .cls-3 {
        fill: url(#radial-gradient-3);
      }

      .cls-4 {
        fill: url(#radial-gradient);
        opacity: .8;
      }

      .cls-5 {
        fill: url(#radial-gradient-4);
      }

      .cls-6 {
        fill: url(#linear-gradient-4);
        mix-blend-mode: multiply;
        opacity: .4;
      }

      .cls-7 {
        fill: url(#radial-gradient-2);
      }

      .cls-8 {
        fill: url(#linear-gradient-2);
      }
    </style>
    <linearGradient id="linear-gradient" x1="95.22" y1="295.96" x2="1590.78" y2="295.96" gradientUnits="userSpaceOnUse">
      <stop offset=".22" stop-color="#755ac7"/>
      <stop offset=".3" stop-color="#7456c2" stop-opacity=".96"/>
      <stop offset=".42" stop-color="#714cb6" stop-opacity=".85"/>
      <stop offset=".58" stop-color="#6d3ba3" stop-opacity=".66"/>
      <stop offset=".75" stop-color="#682488" stop-opacity=".41"/>
      <stop offset=".95" stop-color="#600766" stop-opacity=".09"/>
      <stop offset="1" stop-color="#5f005d" stop-opacity="0"/>
    </linearGradient>
    <linearGradient id="linear-gradient-2" x1="153.06" x2="1532.94" xlink:href="#linear-gradient"/>
    <linearGradient id="linear-gradient-3" x1="1418.14" y1="230.56" x2="209.67" y2="468.7" gradientUnits="userSpaceOnUse">
      <stop offset="0" stop-color="#5e33d1"/>
      <stop offset=".18" stop-color="#6238cd"/>
      <stop offset=".42" stop-color="#6e48c5"/>
      <stop offset=".52" stop-color="#7552c0"/>
      <stop offset=".58" stop-color="#7a52c1"/>
      <stop offset=".67" stop-color="#8a55c5"/>
      <stop offset=".77" stop-color="#a55acc"/>
      <stop offset=".87" stop-color="#ca60d5"/>
      <stop offset=".98" stop-color="#f969e1"/>
      <stop offset=".99" stop-color="#ff6ae3"/>
    </linearGradient>
    <filter id="outer-glow-1" filterUnits="userSpaceOnUse">
      <feOffset dx="0" dy="0"/>
      <feGaussianBlur result="blur" stdDeviation="70"/>
      <feFlood flood-color="#c30dff" flood-opacity=".75"/>
      <feComposite in2="blur" operator="in"/>
      <feComposite in="SourceGraphic"/>
    </filter>
    <linearGradient id="linear-gradient-4" x1="1716.55" y1="-187.12" x2="279.24" y2="747.13" gradientUnits="userSpaceOnUse">
      <stop offset="0" stop-color="#5e0063"/>
      <stop offset=".11" stop-color="#5f0068"/>
      <stop offset=".26" stop-color="#630278"/>
      <stop offset=".42" stop-color="#690693"/>
      <stop offset=".59" stop-color="#730bb8"/>
      <stop offset=".62" stop-color="#750cc0"/>
      <stop offset=".68" stop-color="#7a0fc1"/>
      <stop offset=".74" stop-color="#8a1ac5"/>
      <stop offset=".82" stop-color="#a52ccc"/>
      <stop offset=".9" stop-color="#ca46d5"/>
      <stop offset=".98" stop-color="#f966e1"/>
      <stop offset=".99" stop-color="#ff6ae3"/>
    </linearGradient>
    <radialGradient id="radial-gradient" cx="835.82" cy="694.24" fx="835.82" fy="694.24" r="869.63" gradientTransform="translate(0 303.55) scale(1 .56)" gradientUnits="userSpaceOnUse">
      <stop offset=".77" stop-color="#4c0000"/>
      <stop offset=".86" stop-color="#4d0101"/>
      <stop offset=".89" stop-color="#520808"/>
      <stop offset=".91" stop-color="#5b1214"/>
      <stop offset=".93" stop-color="#682225"/>
      <stop offset=".94" stop-color="#79363b"/>
      <stop offset=".96" stop-color="#8d5056"/>
      <stop offset=".97" stop-color="#a66d77"/>
      <stop offset=".98" stop-color="#c3909c"/>
      <stop offset=".99" stop-color="#e2b6c5"/>
      <stop offset="1" stop-color="#ffd9eb"/>
    </radialGradient>
    <radialGradient id="radial-gradient-2" cx="843" cy="761.83" fx="843" fy="761.83" r="303.2" gradientTransform="translate(1686 323.56) rotate(-180) scale(1 .15)" gradientUnits="userSpaceOnUse">
      <stop offset="0" stop-color="#fff8f1"/>
      <stop offset=".06" stop-color="#dcd5cf" stop-opacity=".86"/>
      <stop offset=".16" stop-color="#a8a49f" stop-opacity=".66"/>
      <stop offset=".26" stop-color="#7b7874" stop-opacity=".49"/>
      <stop offset=".37" stop-color="#555350" stop-opacity=".34"/>
      <stop offset=".48" stop-color="#363533" stop-opacity=".21"/>
      <stop offset=".59" stop-color="#1e1d1c" stop-opacity=".12"/>
      <stop offset=".71" stop-color="#0d0c0c" stop-opacity=".05"/>
      <stop offset=".84" stop-color="#030303" stop-opacity=".01"/>
      <stop offset="1" stop-color="#000" stop-opacity="0"/>
    </radialGradient>
    <radialGradient id="radial-gradient-3" cx="3929.52" cy="1450.22" fx="3929.52" fy="1450.22" r="85.36" gradientTransform="translate(1143.37 -8101.46) rotate(90) scale(2.12 .21)" xlink:href="#radial-gradient-2"/>
    <radialGradient id="radial-gradient-4" cx="3892.47" cy="1959.86" fx="3892.47" fy="1959.86" r="85.36" gradientTransform="translate(-3049.51 -196.85) scale(1 .21)" xlink:href="#radial-gradient-2"/>
  </defs>
  <g class="cls-9">
    <g id="Layer_2" data-name="Layer 2">
      <g id="OBJECTS">
        <g>
          <g>
            <path class="cls-1" d="m95.22,421.53l90.99-71.46c69.48-54.56,165.93-99.92,278.95-131.18,114.74-31.73,245.39-48.51,377.84-48.51s263.11,16.77,377.84,48.51c113.02,31.26,209.48,76.62,278.95,131.18l90.99,71.46H95.22Z"/>
            <path class="cls-8" d="m153.06,401.53l45.5-35.73c67.41-52.94,161.44-97.08,271.93-127.64,113.02-31.26,241.84-47.78,372.51-47.78s259.49,16.52,372.51,47.78c110.49,30.56,204.52,74.69,271.93,127.64l45.5,35.73H153.06Z"/>
            <path class="cls-2" d="m1475.09,381.53c-130.78-102.7-364.95-171.15-632.09-171.15s-501.31,68.44-632.09,171.15h1264.18Z"/>
          </g>
          <path class="cls-6" d="m1475.09,381.53h-350.43c9.41-2,19.05-3.37,27.93-7.07,9.15-3.81,17.17-9.95,26.25-13.92,14.84-6.49,31.53-6.8,47.72-7.02,29.21-.39,58.6-.76,87.41,4.06,28.6,4.79,59.66,14.31,85.18.53,7.99-4.31,16.08-10.95,24.56-11.98,18.52,11.27,35.7,23.08,51.37,35.39Zm-375.71-128.15c-186.18,8.38-375.17,42.81-539.88,128.15h123.6c52.6-25.47,106.56-47.83,163.17-61.9,103.8-25.79,220.67-42.02,327.63-42.36,39.5-.13,79.23,1.6,118.22,6.47-32.16-11.87-66.37-22.51-102.35-31.74-30.28-.56-60.53.03-90.4,1.38Zm-47.53,49.88c-34.73,4.5-69.09,11.75-102.79,21.24-30.01,8.45-59.51,18.67-88.43,30.29-18.46,7.42-43.61,14.43-61.46,26.74h124.88c7.62-2.24,15.08-4.89,22.27-8.28,20.72-9.76,38.71-25.4,60.67-31.92,16.89-5.02,34.44-4.05,51.73-2.18,14.62,1.58,30.14,5.85,44.61,2.02,10.08-2.66,19.38-7.6,28.96-11.73,32.82-14.15,70.55-18.71,104.67-8.08,23.24,7.24,46.72,21.43,70.19,14.98,17.31-4.76,29.61-14.16,48.05-15.12,7.3-.38,14.76-.75,22.22-.68-8.99-4.52-18.22-8.94-27.69-13.23-29.57-4.94-59.88-6.59-89.88-7.95-69.36-3.13-139.13-5.02-207.99,3.89Zm-447.37-63.77c30.82-7.64,63.68-10.86,92.88-22.18-171.74,16.57-322.12,61.89-428.96,125.17,64.03-12.49,128.25-24.09,189.27-46.76,49.17-18.27,95.9-43.61,146.81-56.23Zm179.03,14.16c-36.94,10.74-72.55,25.54-107.9,40.7-64.65,27.73-128.72,56.81-192.18,87.17h30.38c32.48-23.33,67.25-43.12,104.99-56.04,31.52-10.8,64.54-16.61,96.36-26.48,27.56-8.56,54.14-20.14,81.86-28.16,31.65-9.16,64.47-13.58,97.24-16.99,84.01-8.74,168.54-11.01,253.02-11.93-8.18-1.78-16.44-3.49-24.77-5.13-114.03-10.02-229.65-14.94-338.99,16.87Zm-198.12,65.79c59.42-25.92,113.74-63.41,175.22-83.97,65.1-21.77,134.7-23.44,203.61-20.3-39.45-3.14-79.94-4.78-121.22-4.78-25.42,0-50.54.62-75.3,1.83-72.81,31.86-144.12,67.51-219.89,91.3-73.83,23.18-150.84,34.76-225.11,56.48-21.01,6.14-41.96,13.23-62.37,21.54h142.73c60.21-22.36,123.45-36.41,182.33-62.09Z"/>
          <path class="cls-4" d="m1475.09,381.53c-130.78-102.7-364.95-171.15-632.09-171.15s-501.31,68.44-632.09,171.15h1264.18Z"/>
          <g>
            <ellipse class="cls-7" cx="843" cy="209.56" rx="314.89" ry="46.97"/>
            <ellipse class="cls-3" cx="843" cy="209.56" rx="18.32" ry="187.5" transform="translate(525.09 1017.95) rotate(-82.49)"/>
            <ellipse class="cls-5" cx="843" cy="209.56" rx="88.65" ry="18.32" transform="translate(64.66 595.23) rotate(-40.32)"/>
          </g>
        </g>
      </g>
    </g>
  </g>
</svg>